<svg width="110" height="110" viewBox="0 0 110 110" fill="none" xmlns="http://www.w3.org/2000/svg">
<rect width="58.9487" height="58.9487" rx="29.4744" transform="matrix(1 0 0 -1 25.5259 84.4741)" fill="#00ABAE"/>
<rect x="1" y="-1" width="78.3846" height="78.3846" rx="39.1923" transform="matrix(1 0 0 -1 14.8076 93.1924)" stroke="white" stroke-opacity="0.65" stroke-width="2"/>
<rect x="1" y="-1" width="108" height="108" rx="54" transform="matrix(1 0 0 -1 0 108)" stroke="white" stroke-opacity="0.17" stroke-width="2"/>
<path d="M50.4982 55.0427L50.4982 63.8575C50.4982 65.5316 52.7753 66.37 54.1071 65.1862L64.0236 56.3715C64.8492 55.6376 64.8492 54.4478 64.0236 53.714L54.1071 44.8993C52.7753 43.7155 50.4982 44.5539 50.4982 46.228L50.4982 55.0427Z" fill="white"/>
</svg>
